<svg id="Ebene_1" data-name="Ebene 1" xmlns="http://www.w3.org/2000/svg" viewBox="0 0 386 418"><defs><style>.cls-1,.cls-2,.cls-4{fill:#343a40}.cls-1{clip-rule:evenodd}.cls-2{fill-rule:evenodd}</style><clipPath id="clip-path"><path class="cls-1" d="M193 50.77c51.53 0 57.64.2 78 1.13 18.81.86 29 4 35.84 6.64A60 60 0 0 1 329 73a60.08 60.08 0 0 1 14.44 22.19c2.64 6.8 5.78 17 6.64 35.84.93 20.35 1.13 26.46 1.13 78s-.2 57.64-1.13 78c-.86 18.82-4 29-6.64 35.84a64 64 0 0 1-36.63 36.63c-6.8 2.64-17 5.78-35.84 6.64-20.35.93-26.45 1.13-78 1.13s-57.64-.2-78-1.13c-18.82-.86-29-4-35.84-6.64A59.87 59.87 0 0 1 57 345a59.91 59.91 0 0 1-14.44-22.19c-2.64-6.8-5.78-17-6.64-35.84-.93-20.35-1.13-26.45-1.13-78s.2-57.64 1.13-78c.86-18.81 4-29 6.64-35.84A60.08 60.08 0 0 1 57 73a60 60 0 0 1 22.17-14.46c6.8-2.64 17-5.78 35.84-6.64 20.35-.93 26.46-1.13 78-1.13M193 16c-52.42 0-59 .22-79.57 1.16s-34.58 4.2-46.85 9a94.6 94.6 0 0 0-34.19 22.23 94.6 94.6 0 0 0-22.26 34.19c-4.77 12.28-8 26.3-9 46.85S0 156.58 0 209s.22 59 1.16 79.57 4.2 34.58 9 46.85a94.6 94.6 0 0 0 22.26 34.19 94.6 94.6 0 0 0 34.19 22.26c12.27 4.77 26.3 8 46.85 9S140.58 402 193 402s59-.22 79.57-1.16 34.58-4.2 46.85-9a98.65 98.65 0 0 0 56.45-56.45c4.77-12.27 8-26.3 9-46.85S386 261.42 386 209s-.22-59-1.16-79.57-4.2-34.57-9-46.85a94.6 94.6 0 0 0-22.26-34.19 94.6 94.6 0 0 0-34.19-22.26c-12.27-4.77-26.3-8-46.85-9S245.42 16 193 16"/></clipPath><clipPath id="clip-path-2"><path class="cls-1" d="M193 275.81A66.81 66.81 0 1 1 259.81 209 66.81 66.81 0 0 1 193 275.81m0-170.73A103.92 103.92 0 1 0 296.92 209 103.92 103.92 0 0 0 193 105.08"/></clipPath><clipPath id="clip-path-3"><path class="cls-1" d="M322.16 106.56a23.75 23.75 0 1 1-23.75-23.75 23.75 23.75 0 0 1 23.75 23.75"/></clipPath></defs><path class="cls-2" d="M193 50.77c51.53 0 57.64.2 78 1.13 18.81.86 29 4 35.84 6.64A60 60 0 0 1 329 73a60.08 60.08 0 0 1 14.44 22.19c2.64 6.8 5.78 17 6.64 35.84.93 20.35 1.13 26.46 1.13 78s-.2 57.64-1.13 78c-.86 18.82-4 29-6.64 35.84a64 64 0 0 1-36.63 36.63c-6.8 2.64-17 5.78-35.84 6.64-20.35.93-26.45 1.13-78 1.13s-57.64-.2-78-1.13c-18.82-.86-29-4-35.84-6.64A59.87 59.87 0 0 1 57 345a59.91 59.91 0 0 1-14.44-22.19c-2.64-6.8-5.78-17-6.64-35.84-.93-20.35-1.13-26.45-1.13-78s.2-57.64 1.13-78c.86-18.81 4-29 6.64-35.84A60.08 60.08 0 0 1 57 73a60 60 0 0 1 22.17-14.46c6.8-2.64 17-5.78 35.84-6.64 20.35-.93 26.46-1.13 78-1.13M193 16c-52.42 0-59 .22-79.57 1.16s-34.58 4.2-46.85 9a94.6 94.6 0 0 0-34.19 22.23 94.6 94.6 0 0 0-22.26 34.19c-4.77 12.28-8 26.3-9 46.85S0 156.58 0 209s.22 59 1.16 79.57 4.2 34.58 9 46.85a94.6 94.6 0 0 0 22.26 34.19 94.6 94.6 0 0 0 34.19 22.26c12.27 4.77 26.3 8 46.85 9S140.58 402 193 402s59-.22 79.57-1.16 34.58-4.2 46.85-9a98.65 98.65 0 0 0 56.45-56.45c4.77-12.27 8-26.3 9-46.85S386 261.42 386 209s-.22-59-1.16-79.57-4.2-34.57-9-46.85a94.6 94.6 0 0 0-22.26-34.19 94.6 94.6 0 0 0-34.19-22.26c-12.27-4.77-26.3-8-46.85-9S245.42 16 193 16"/><g clip-path="url(#clip-path)"><path class="cls-4" d="M-74.23-58.23h534.46v534.46H-74.23z"/></g><path class="cls-2" d="M193 275.81A66.81 66.81 0 1 1 259.81 209 66.81 66.81 0 0 1 193 275.81m0-170.73A103.92 103.92 0 1 0 296.92 209 103.92 103.92 0 0 0 193 105.08"/><g clip-path="url(#clip-path-2)"><path class="cls-4" d="M14.85 30.85h356.31v356.31H14.85z"/></g><path class="cls-2" d="M322.16 106.56a23.75 23.75 0 1 1-23.75-23.75 23.75 23.75 0 0 1 23.75 23.75"/><g clip-path="url(#clip-path-3)"><path class="cls-4" d="M200.42 8.58h195.97v195.97H200.42z"/></g></svg>